<svg width="32" height="32" viewBox="0 0 32 32" fill="none" xmlns="http://www.w3.org/2000/svg">
<g clip-path="url(#clip0_1664_3384)">
<path d="M23.2672 24.3426C24.1392 23.4705 24.1392 22.0566 23.2672 21.1845C22.3951 20.3124 20.9811 20.3124 20.1091 21.1845L21.6881 22.7635L23.2672 24.3426ZM16.9077 25.1898L17.2502 27.3965L17.2502 27.3966L16.9077 25.1898ZM11.6169 24.3264L10.5906 26.3097H10.5906L11.6169 24.3264ZM7.85592 20.5062L9.85506 19.5111L9.85506 19.5111L7.85592 20.5062ZM7.07529 15.2025L4.87421 14.8256L4.87421 14.8256L7.07529 15.2025ZM9.57604 10.4606L8.02187 8.85706L9.57604 10.4606ZM14.3938 8.10933L14.7016 10.3211L14.3938 8.10933ZM21.6881 22.7635L20.1091 21.1845C19.1486 22.1449 17.9075 22.7749 16.5653 22.9831L16.9077 25.1898L17.2502 27.3966C19.5291 27.0429 21.6364 25.9733 23.2672 24.3426L21.6881 22.7635ZM16.9077 25.1898L16.5653 22.9831C15.2231 23.1914 13.8495 22.9672 12.6431 22.3431L11.6169 24.3264L10.5906 26.3097C12.6389 27.3696 14.9712 27.7502 17.2502 27.3965L16.9077 25.1898ZM11.6169 24.3264L12.6431 22.3431C11.4368 21.7189 10.4603 20.727 9.85506 19.5111L7.85592 20.5062L5.85677 21.5013C6.88445 23.5659 8.54238 25.2499 10.5906 26.3097L11.6169 24.3264ZM7.85592 20.5062L9.85506 19.5111C9.2498 18.2951 9.04713 16.9181 9.27637 15.5793L7.07529 15.2025L4.87421 14.8256C4.48498 17.0987 4.8291 19.4367 5.85677 21.5013L7.85592 20.5062ZM7.07529 15.2025L9.27637 15.5793C9.50562 14.2406 10.1549 13.0095 11.1302 12.0642L9.57604 10.4606L8.02187 8.85706C6.36583 10.4621 5.26344 12.5524 4.87421 14.8256L7.07529 15.2025ZM9.57604 10.4606L11.1302 12.0642C12.1055 11.1189 13.3564 10.5084 14.7016 10.3211L14.3938 8.10933L14.0859 5.89754C11.8017 6.21552 9.6779 7.25202 8.02187 8.85706L9.57604 10.4606ZM14.3938 8.10933L14.7016 10.3211C16.0469 10.1338 17.4169 10.3795 18.6134 11.0224L19.6705 9.05539L20.7276 7.08833C18.6962 5.99661 16.37 5.57957 14.0859 5.89754L14.3938 8.10933ZM19.6705 9.05539L18.6134 11.0224C19.8098 11.6654 20.7706 12.6724 21.3568 13.8977L23.3712 12.9339L25.3857 11.9702C24.3904 9.88982 22.759 8.18005 20.7276 7.08833L19.6705 9.05539Z" fill="#D9D9D9"/>
<path d="M27.6717 17.4991C27.7101 18.0151 27.2123 18.4044 26.7208 18.2426L17.9916 15.3703C17.4403 15.1889 17.3139 14.466 17.771 14.1085L25.818 7.8165C26.2752 7.45898 26.9471 7.75543 26.9902 8.33424L27.6717 17.4991Z" fill="#D9D9D9" stroke="#D9D9D9" stroke-width="0.484115"/>
</g>
<defs>
<clipPath id="clip0_1664_3384">
<rect width="32" height="32" fill="white"/>
</clipPath>
</defs>
</svg>
