<svg xmlns="http://www.w3.org/2000/svg" width="100%" height="100%" viewBox="0 0 32 32">
  <path fill="#F5F5F5" d="M28.8,3H11.9c-0.1,0-0.2,0-0.3,0.1l-8.2,8.2c-0.2,0-0.3,0.2-0.3,0.4c0,0,0,0.1,0,0.1L3,28.6
	c0,0.1,0,0.2,0.1,0.3C3.2,29,3.3,29,3.4,29h16.8c0.1,0,0.2,0,0.3-0.1l8.4-8.5c0.1-0.1,0.1-0.2,0.1-0.3V3.4C29,3.2,28.8,3,28.8,3z
	 M28.4,19.8C28.3,19.8,28.3,19.8,28.4,19.8h-1.3c-0.2,0-0.4,0.2-0.4,0.4c0,0.2,0.2,0.4,0.4,0.4h0.6l-6.9,7.1v-7h0
	c0.2,0,0.4-0.2,0.4-0.4c0-0.2-0.2-0.4-0.4-0.4h0v-8l7.6-7.5V19.8z M4.6,27.4c-0.2-0.2-0.4-0.2-0.6,0l-0.2,0.2L3.7,12.1h7.5
	c0.1,0.1,0.2,0.1,0.3,0.1c0.1,0,0.3,0,0.3-0.1h7.7v7.8h-0.3c-0.2,0-0.4,0.2-0.4,0.4c0,0.2,0.2,0.4,0.4,0.4h0.3v7.5H4.4L4.6,28
	C4.8,27.8,4.8,27.6,4.6,27.4z M11.9,4.6c0.2,0,0.4-0.2,0.4-0.4V3.8h15.1l-7.6,7.5h-7.5v-0.7c0-0.2-0.2-0.4-0.4-0.4
	c-0.2,0-0.4,0.2-0.4,0.4v0.7h-7l7-6.9C11.6,4.5,11.7,4.6,11.9,4.6z M11.9,19.8c0.2,0,0.4-0.2,0.4-0.4v-1.2c0-0.2-0.2-0.4-0.4-0.4
	s-0.4,0.2-0.4,0.4v1.2C11.5,19.7,11.7,19.8,11.9,19.8z M10.7,21.9c0.1,0,0.2,0,0.3-0.1l0.9-0.9c0,0,0.1-0.1,0.1-0.2h1.2
	c0.2,0,0.4-0.2,0.4-0.4c0-0.2-0.2-0.4-0.4-0.4H12c-0.2,0-0.3,0.1-0.4,0.3c-0.1,0-0.2,0-0.3,0.1l-0.9,0.9c-0.2,0.2-0.2,0.4,0,0.6
	C10.5,21.8,10.6,21.9,10.7,21.9z M11.9,14.8c0.2,0,0.4-0.2,0.4-0.4v-1.2c0-0.2-0.2-0.4-0.4-0.4s-0.4,0.2-0.4,0.4v1.2
	C11.5,14.6,11.7,14.8,11.9,14.8z M11.9,17.2c0.2,0,0.4-0.2,0.4-0.4v-1.2c0-0.2-0.2-0.4-0.4-0.4s-0.4,0.2-0.4,0.4v1.2
	C11.5,17.1,11.7,17.2,11.9,17.2z M11.9,7.2c0.2,0,0.4-0.2,0.4-0.4V5.5c0-0.2-0.2-0.4-0.4-0.4s-0.4,0.2-0.4,0.4v1.2
	C11.5,7,11.7,7.2,11.9,7.2z M9,23.6c0.1,0,0.2,0,0.3-0.1l0.9-0.9c0.2-0.2,0.2-0.4,0-0.6s-0.4-0.2-0.6,0L8.7,23
	c-0.2,0.2-0.2,0.4,0,0.6C8.8,23.6,8.8,23.6,9,23.6z M7.2,25.5c0.1,0,0.2,0,0.3-0.1l0.9-0.9c0.2-0.2,0.2-0.4,0-0.6s-0.4-0.2-0.6,0
	l-0.9,0.9c-0.2,0.2-0.2,0.4,0,0.6C6.9,25.4,7.1,25.5,7.2,25.5z M11.9,9.7c0.2,0,0.4-0.2,0.4-0.4V8c0-0.2-0.2-0.4-0.4-0.4
	S11.5,7.8,11.5,8v1.2C11.5,9.5,11.7,9.7,11.9,9.7z M5.4,27.2c0.1,0,0.2,0,0.3-0.1l0.9-0.9c0.2-0.2,0.2-0.4,0-0.6
	c-0.2-0.2-0.4-0.2-0.6,0l-0.9,0.9c-0.2,0.2-0.2,0.4,0,0.6C5.2,27.2,5.3,27.2,5.4,27.2z M22,20.7h1.2c0.2,0,0.4-0.2,0.4-0.4
	c0-0.2-0.2-0.4-0.4-0.4H22c-0.2,0-0.4,0.2-0.4,0.4S21.8,20.7,22,20.7z M24.6,20.7h1.2c0.2,0,0.4-0.2,0.4-0.4c0-0.2-0.2-0.4-0.4-0.4
	h-1.2c-0.2,0-0.4,0.2-0.4,0.4S24.4,20.7,24.6,20.7z M14.5,20.7h1.2c0.2,0,0.4-0.2,0.4-0.4c0-0.2-0.2-0.4-0.4-0.4h-1.2
	c-0.2,0-0.4,0.2-0.4,0.4C14.1,20.5,14.3,20.7,14.5,20.7z M17,20.7h1.2c0.2,0,0.4-0.2,0.4-0.4c0-0.2-0.2-0.4-0.4-0.4H17
	c-0.2,0-0.4,0.2-0.4,0.4C16.6,20.5,16.8,20.7,17,20.7z" />
</svg>
