<?xml version="1.0" encoding="UTF-8" standalone="no"?>
<!DOCTYPE svg PUBLIC "-//W3C//DTD SVG 1.1//EN" "http://www.w3.org/Graphics/SVG/1.1/DTD/svg11.dtd">
<svg width="100%" height="100%" viewBox="0 0 32 32" version="1.1" xmlns="http://www.w3.org/2000/svg" xmlns:xlink="http://www.w3.org/1999/xlink" xml:space="preserve" xmlns:serif="http://www.serif.com/" style="fill-rule:evenodd;clip-rule:evenodd;">
    <g id="a">
        <g transform="matrix(1,0,0,1,3.5,16)">
            <path d="M0,0L25,0" style="fill:none;fill-rule:nonzero;stroke:white;stroke-width:2px;"/>
        </g>
        <g transform="matrix(1,0,0,1,16,3.5)">
            <path d="M0,0L0,25" style="fill:none;fill-rule:nonzero;stroke:white;stroke-width:2px;"/>
        </g>
        <g transform="matrix(1,0,0,1,9.5,10.5)">
            <path d="M6.5,-1C10.066,-1 13,1.934 13,5.5C13,9.066 10.066,12 6.5,12C2.934,12 0,9.066 0,5.5C-0,1.934 2.934,-1 6.5,-1Z" style="fill:none;fill-rule:nonzero;"/>
            <path d="M6.5,0C3.467,0 1,2.467 1,5.5C1,8.533 3.467,11 6.5,11C9.533,11 12,8.533 12,5.5C12,2.467 9.533,0 6.5,0M6.5,-1C10.09,-1 13,1.91 13,5.5C13,9.09 10.09,12 6.5,12C2.91,12 0,9.09 0,5.5C0,1.91 2.91,-1 6.5,-1Z" style="fill:white;fill-rule:nonzero;"/>
        </g>
    </g>
</svg>
